<?xml version="1.0" encoding="utf-8" standalone="no"?>
<?xml-stylesheet href="svg.css" type="text/css"?>
<!DOCTYPE svg PUBLIC "-//W3C//DTD SVG 1.1//EN" "http://www.w3.org/Graphics/SVG/1.1/DTD/svg11.dtd">
<svg width="600" height="600" version="1.1" xmlns="http://www.w3.org/2000/svg" xmlns:xlink="http://www.w3.org/1999/xlink">
	<!--标题和文档的描述-->
	<title>易易SVG图之河图方案一（使用了样式表）</title>
	<desc>完全原生的河图方案设计。</desc>
	<!--该文档的元数据，描述图片相关信息和版权-->
	<metadata>
   
  </metadata>
	<!--定义显示符号所用的style-->
	<defs>
		<style type="text/css"><![CDATA[      	
         #tip_0{
         fill:none;
         stroke:black;
         stroke-width:4;
         }
         #tip_1{
         fill:black;
         stroke:#333333;
         stroke-width:4;
         }
         .line_style{
         fill:none;
         stroke:black;
         stroke-width:2;
         }
       ]]></style>
	</defs>
	<!--定义两个小圆点-->
	<defs>
		<title>该方案以e3.svg来生成，即两件八卦组合成一个64卦符号</title>
		<desc>64卦符号的ViewBox为宽200高为275的长方型。</desc>
		<title>定义两个阳阳小园点，大小尺寸见设计原文件。</title>
		<symbol id="tip_0" viewBox="0 0 20 20">
			<circle cx="10" cy="10" r="8"/>
		</symbol>
		<symbol id="tip_1" viewBox="0 0 20 20">
			<circle cx="10" cy="10" r="8"/>
		</symbol>
	</defs>
	<!--将坐标原点定义到图片正中心-->
	<g transform="translate(300 300)">
		<g id="center_0">
			<line x1="-60" x2="60" class="line_style"/>
			<line y1="-60" y2="60" class="line_style"/>
			<use transform="translate(-10 -10)" width="20" height="20" xlink:href="#tip_0"/>
			<use transform="translate(-70 -10)" width="20" height="20" xlink:href="#tip_0"/>
			<use transform="translate(50 -10)" width="20" height="20" xlink:href="#tip_0"/>
			<use transform="translate(-10 -70)" width="20" height="20" xlink:href="#tip_0"/>
			<use transform="translate(-10 50)" width="20" height="20" xlink:href="#tip_0"/>
		</g>
		<g id="center_1">
			<rect x="-120" y="-120" width="240" height="240" class="line_style"/>
			<g id="center_1_top_line" transform="translate(0 -120)">
				<use transform="translate(-130 -10)" width="20" height="20" xlink:href="#tip_1"/>
				<use transform="translate(-70 -10)" width="20" height="20" xlink:href="#tip_1"/>
				<use transform="translate(-10 -10)" width="20" height="20" xlink:href="#tip_1"/>
				<use transform="translate(50 -10)" width="20" height="20" xlink:href="#tip_1"/>
				<use transform="translate(110 -10)" width="20" height="20" xlink:href="#tip_1"/>
			</g>
			<g id="center_1_bottom_line" transform="translate(0 120)">
				<use transform="translate(-130 -10)" width="20" height="20" xlink:href="#tip_1"/>
				<use transform="translate(-70 -10)" width="20" height="20" xlink:href="#tip_1"/>
				<use transform="translate(-10 -10)" width="20" height="20" xlink:href="#tip_1"/>
				<use transform="translate(50 -10)" width="20" height="20" xlink:href="#tip_1"/>
				<use transform="translate(110 -10)" width="20" height="20" xlink:href="#tip_1"/>
			</g>
		</g>
		<g id="bottom_0_1" transform="translate(0 180)">
			<use transform="translate(-10 -10)" width="20" height="20" xlink:href="#tip_0"/>
		</g>
		<g id="top_1_2" transform="translate(0 -180)">
			<line x1="-30" x2="30" class="line_style"/>
			<use transform="translate(-40 -10)" width="20" height="20" xlink:href="#tip_1"/>
			<use transform="translate(20 -10)" width="20" height="20" xlink:href="#tip_1"/>
		</g>
		<g id="left_0_3" transform="translate(-180 0)">
			<line y1="-60" y2="60" class="line_style"/>
			<use transform="translate(-10 -70)" width="20" height="20" xlink:href="#tip_0"/>
			<use transform="translate(-10 50)" width="20" height="20" xlink:href="#tip_0"/>
			<use transform="translate(-10 -10)" width="20" height="20" xlink:href="#tip_0"/>
		</g>
		<g id="right_1_4" transform="translate(180 0)">
			<line y1="-90" y2="90" class="line_style"/>
			<use transform="translate(-10 -100)" width="20" height="20" xlink:href="#tip_1"/>
			<use transform="translate(-10 -40)" width="20" height="20" xlink:href="#tip_1"/>
			<use transform="translate(-10 20)" width="20" height="20" xlink:href="#tip_1"/>
			<use transform="translate(-10 80)" width="20" height="20" xlink:href="#tip_1"/>
		</g>
		<g id="bottom_1_6" transform="translate(0 240)">
			<line x1="-180" x2="180" class="line_style"/>
			<use transform="translate(-190 -10)" width="20" height="20" xlink:href="#tip_1"/>
			<use transform="translate(-118 -10)" width="20" height="20" xlink:href="#tip_1"/>
			<use transform="translate(-46 -10)" width="20" height="20" xlink:href="#tip_1"/>
			<use transform="translate(26 -10)" width="20" height="20" xlink:href="#tip_1"/>
			<use transform="translate(98 -10)" width="20" height="20" xlink:href="#tip_1"/>
			<use transform="translate(170 -10)" width="20" height="20" xlink:href="#tip_1"/>
		</g>
		<g id="top_0_7" transform="translate(0 -240)">
			<line x1="-180" x2="180" class="line_style"/>
			<use transform="translate(-190 -10)" width="20" height="20" xlink:href="#tip_0"/>
			<use transform="translate(-130 -10)" width="20" height="20" xlink:href="#tip_0"/>
			<use transform="translate(-70 -10)" width="20" height="20" xlink:href="#tip_0"/>
			<use transform="translate(-10 -10)" width="20" height="20" xlink:href="#tip_0"/>
			<use transform="translate(50 -10)" width="20" height="20" xlink:href="#tip_0"/>
			<use transform="translate(110 -10)" width="20" height="20" xlink:href="#tip_0"/>
			<use transform="translate(170 -10)" width="20" height="20" xlink:href="#tip_0"/>
		</g>
		<g id="left_1_8" transform="translate(-240 0)">
			<line y1="-175" y2="175" class="line_style"/>
			<use transform="translate(-10 -185)" width="20" height="20" xlink:href="#tip_1"/>
			<use transform="translate(-10 -135)" width="20" height="20" xlink:href="#tip_1"/>
			<use transform="translate(-10 -85)" width="20" height="20" xlink:href="#tip_1"/>
			<use transform="translate(-10 -35)" width="20" height="20" xlink:href="#tip_1"/>
			<use transform="translate(-10 15)" width="20" height="20" xlink:href="#tip_1"/>
			<use transform="translate(-10 65)" width="20" height="20" xlink:href="#tip_1"/>
			<use transform="translate(-10 115)" width="20" height="20" xlink:href="#tip_1"/>
			<use transform="translate(-10 165)" width="20" height="20" xlink:href="#tip_1"/>
		</g>
		<g id="left_0_9" transform="translate(240 0)">
			<line y1="-180" y2="180" class="line_style"/>
			<use transform="translate(-10 -190)" width="20" height="20" xlink:href="#tip_0"/>
			<use transform="translate(-10 -145)" width="20" height="20" xlink:href="#tip_0"/>
			<use transform="translate(-10 -100)" width="20" height="20" xlink:href="#tip_0"/>
			<use transform="translate(-10 -55)" width="20" height="20" xlink:href="#tip_0"/>
			<use transform="translate(-10 -10)" width="20" height="20" xlink:href="#tip_0"/>
			<use transform="translate(-10 35)" width="20" height="20" xlink:href="#tip_0"/>
			<use transform="translate(-10 80)" width="20" height="20" xlink:href="#tip_0"/>
			<use transform="translate(-10 125)" width="20" height="20" xlink:href="#tip_0"/>
			<use transform="translate(-10 170)" width="20" height="20" xlink:href="#tip_0"/>
		</g>
	</g>
</svg>
