<?xml version="1.0" encoding="utf-8" standalone="no"?>
<!DOCTYPE svg PUBLIC "-//W3C//DTD SVG 1.1//EN" "http://www.w3.org/Graphics/SVG/1.1/DTD/svg11.dtd">
<svg id="now_tj" xmlns="http://www.w3.org/2000/svg" xmlns:xlink="http://www.w3.org/1999/xlink" x="0" y="0" width="300" height="300">
	<defs id="the_element">
		<path id="ying_yang_path" d="M125.5 298.445 C69.5854 288.997 23.2991 248.724 6.60928 195 C1.55703 178.737 -0.000673627
				168.271 0.00402132 150.619 C0.0153741 107.936 14.0622 73.8484 43.9569
				43.9593 C64.3605 23.5595 85.2758 11.4039 111.885 4.48016 C133.045 -1.02541
				158.766 -1.5077 173.5 3.32485 C184.852 7.04824 193.238 12.2899 202.579 21.5
				C211.759 30.5515 217.521 39.6012 221.682 51.5 C224.28 58.9319 224.479 60.6007
				224.479 75 C224.479 89.3993 224.28 91.0681 221.682 98.5 C217.651 110.028
				211.747 119.419 203.083 128.083 C188.947 142.219 174.576 148.493 152.596 150.126
				C136.759 151.303 126.045 153.803 116.59 158.528 C80.326 176.654 65.4515
				220.73 83.1115 257.734 C89.0362 270.148 101.031 282.783 114 290.271 C120.875
				294.24 133.424 298.071 142.412 298.943 L150.5 299.727 L142 299.762 C137.325
				299.781 129.9 299.188 125.5 298.445 z"/>
		<symbol id="eye">
			<circle cx="25" cy="25" r="25"/>
		</symbol>
	</defs>
	<g>
		<use id="yang" xlink:href="#ying_yang_path" style="stroke:rgb(0,0,0);fill:rgb(255,255,255)"/>
		<use id="ying" xlink:href="#ying_yang_path" style="stroke:rgb(0,0,0);fill:rgb(0,0,0)" transform="translate(300 300) rotate(180)"/>
		<use id="yang_eye" x="125" y="50" xlink:href="#eye"/>
		<use id="ying_eye" x="125" y="200" xlink:href="#eye" style="fill:rgb(255,255,255);stroke:rgb(0,0,0)"/>
	</g>
</svg>
